# xmcd
#
# Track frame offsets:
# 151
# 16566
# 34655
# 50050
#
# Disc length: 860 seconds
#
#
# Revision: 2
# Processed by: cddbd v1.5.1PL0 Copyright (c) Steve Scherf et al.
# Submitted via: FreeRIP 2.90 
#
DISCID=25035a04
DTITLE=omega  - mambo violento 
DYEAR=2000
DGENRE=merengue 
TTITLE0=John Michael Montgomery - Nothing catches Jesus by surprise
TTITLE1=Shania Twain - Rock this country
TTITLE2=George Strait - The best day
TTITLE3=Laura Pursell - Am I naive
EXTD=
EXTT0=
EXTT1=
EXTT2=
EXTT3=
PLAYORDER=
